<?xml version="1.0" standalone="no"?>
<!DOCTYPE svg PUBLIC "-//W3C//DTD SVG 20010904//EN"
 "http://www.w3.org/TR/2001/REC-SVG-20010904/DTD/svg10.dtd">
<svg version="1.0" xmlns="http://www.w3.org/2000/svg"
 width="1064.000000pt" height="1064.000000pt" viewBox="0 0 1064.000000 1064.000000"
 preserveAspectRatio="xMidYMid meet">
<metadata>
Created by potrace 1.14, written by Peter Selinger 2001-2017
</metadata>
<g transform="translate(0.000000,1064.000000) scale(0.100000,-0.100000)"
fill="#000000" stroke="none">
<path d="M7085 8850 c-82 -4 -177 -13 -210 -20 -33 -6 -94 -18 -135 -25 -69
-12 -121 -23 -210 -45 -19 -5 -82 -13 -140 -19 -58 -6 -130 -18 -160 -27 -52
-15 -80 -23 -197 -58 -27 -8 -75 -22 -108 -31 -33 -9 -82 -27 -110 -40 -67
-33 -238 -105 -248 -105 -13 0 -156 -70 -162 -80 -3 -4 -22 -14 -43 -20 -52
-17 -193 -88 -218 -111 -11 -10 -29 -19 -40 -19 -11 0 -49 -20 -85 -45 -78
-54 -131 -84 -187 -106 -24 -10 -60 -30 -80 -46 -20 -15 -46 -35 -59 -43 -63
-42 -303 -231 -392 -309 -56 -49 -120 -101 -144 -117 -53 -36 -242 -197 -325
-278 -111 -107 -137 -130 -174 -159 -20 -15 -49 -45 -65 -66 -15 -22 -68 -84
-117 -138 -48 -53 -92 -107 -96 -118 -4 -11 -45 -74 -91 -139 -110 -154 -130
-187 -207 -340 -46 -93 -65 -141 -66 -171 -1 -34 -9 -52 -47 -96 -116 -138
-184 -254 -235 -403 -31 -91 -37 -97 -77 -84 -18 6 -36 14 -42 18 -5 4 -22 10
-36 13 -14 4 -54 31 -88 62 -65 58 -68 60 -90 46 -11 -7 -12 -26 -7 -87 9
-115 16 -143 44 -199 48 -96 127 -188 207 -239 l51 -33 17 -89 c9 -49 21 -107
26 -129 6 -22 15 -76 21 -120 15 -111 73 -226 139 -277 60 -46 96 -61 133 -53
40 9 58 31 58 71 0 42 14 43 60 4 31 -27 33 -31 18 -41 -16 -9 -18 -27 -18
-152 1 -130 11 -278 25 -367 25 -155 39 -232 51 -277 8 -28 14 -59 14 -70 0
-18 48 -189 78 -273 9 -25 17 -60 19 -79 2 -19 12 -59 22 -90 11 -31 22 -72
26 -91 8 -44 21 -79 56 -155 15 -33 32 -80 39 -105 21 -82 77 -233 124 -333
25 -53 46 -101 46 -106 0 -21 203 -264 300 -359 30 -29 96 -80 145 -113 50
-33 106 -75 125 -93 19 -18 67 -55 106 -83 65 -46 102 -69 266 -157 32 -17 90
-51 129 -75 40 -23 101 -56 138 -71 36 -16 67 -32 68 -37 2 -8 -82 -63 -128
-83 -13 -5 -45 -25 -70 -42 -25 -18 -68 -46 -94 -63 -27 -16 -60 -38 -74 -47
-14 -10 -33 -21 -41 -25 -26 -12 -323 -322 -357 -373 -25 -36 -109 -139 -184
-224 -19 -23 -50 -65 -68 -94 -19 -29 -53 -66 -77 -83 -24 -16 -44 -36 -44
-44 0 -8 -4 -15 -9 -15 -12 0 -122 -185 -127 -214 -2 -11 -7 -36 -10 -54 -4
-18 -1 -45 6 -62 12 -29 14 -30 81 -30 l68 0 31 43 c53 72 156 228 216 327 32
52 75 115 96 140 202 236 447 483 531 536 29 18 70 46 92 63 22 16 53 35 68
42 15 7 51 34 79 61 28 26 54 48 58 48 4 0 20 12 36 26 16 14 57 39 91 54 60
28 65 28 110 16 27 -8 86 -19 133 -26 47 -6 117 -20 155 -30 74 -19 102 -23
177 -21 45 1 46 2 61 44 8 24 14 72 13 106 l-1 63 -180 2 c-151 1 -195 5 -270
24 -84 22 -267 86 -290 102 -5 4 -28 13 -50 20 -46 15 -143 56 -165 70 -33 22
-154 80 -165 80 -7 0 -25 10 -40 21 -14 12 -56 36 -91 54 -36 18 -90 55 -121
81 -30 27 -94 83 -141 124 -206 180 -382 362 -382 395 0 7 -6 18 -13 24 -8 6
-20 30 -28 53 -7 24 -40 93 -72 153 -56 104 -94 199 -138 345 -11 36 -24 74
-29 85 -26 57 -49 126 -59 175 -15 77 -29 129 -66 255 -18 61 -48 171 -65 245
-18 74 -41 167 -52 205 -11 39 -22 79 -24 90 -2 11 -8 43 -14 70 -32 152 -68
350 -65 353 2 3 25 -3 51 -12 26 -9 58 -16 71 -16 24 0 164 36 295 76 82 25
321 83 453 109 44 9 98 20 120 25 115 24 285 51 420 65 61 7 94 19 107 39 14
21 8 55 -13 69 -17 12 -19 19 -10 34 14 26 -12 63 -43 63 -18 0 -25 7 -29 27
-3 15 0 34 6 43 14 24 2 48 -30 61 -31 12 -113 1 -237 -31 -44 -11 -89 -20
-101 -20 -21 0 -80 -14 -245 -58 -41 -11 -117 -30 -169 -42 -94 -22 -166 -47
-311 -110 -198 -86 -250 -123 -229 -161 12 -24 5 -49 -14 -49 -8 0 -31 15 -53
34 -37 32 -38 34 -24 60 12 24 12 29 0 37 -11 8 -4 9 24 5 34 -5 38 -3 33 14
-4 16 0 20 19 20 13 0 24 5 24 11 0 8 4 8 14 0 11 -9 15 -6 20 14 7 26 20 33
31 15 20 -32 89 13 81 53 -11 48 -15 217 -6 217 6 0 10 -6 10 -13 0 -21 34
-47 61 -46 13 0 41 -2 62 -6 33 -7 44 -3 90 29 29 20 68 54 87 77 19 22 52 54
72 70 l36 29 28 -25 c30 -28 49 -31 91 -14 15 6 52 12 80 14 63 3 104 31 164
111 47 64 179 329 179 360 0 28 26 89 32 78 3 -5 17 -49 32 -99 100 -333 203
-493 372 -578 50 -25 59 -27 91 -16 23 7 38 8 42 1 3 -5 26 -26 49 -46 67 -55
134 -45 147 23 2 11 6 25 10 30 3 5 1 12 -5 16 -5 3 -10 10 -10 16 0 14 26 11
39 -5 11 -13 15 -12 32 5 18 18 21 18 50 3 17 -8 38 -29 47 -46 33 -59 53 -78
81 -78 35 0 56 23 70 78 13 48 42 71 101 82 38 7 39 6 34 -16 -6 -25 15 -68
45 -91 46 -36 164 20 258 122 74 79 206 268 235 335 11 25 26 60 34 78 18 39
42 143 55 231 5 35 13 69 19 76 5 6 7 15 3 18 -3 4 -1 7 6 7 7 0 10 4 7 8 -3
5 8 8 25 7 16 -1 32 2 35 7 3 5 0 7 -7 6 -6 -2 -14 3 -17 11 -3 10 0 12 12 8
13 -5 15 -2 10 17 -6 25 13 47 25 28 3 -5 22 -10 43 -10 30 0 37 4 41 24 2 13
-1 25 -7 28 -6 2 2 3 18 2 16 -2 33 -11 38 -22 6 -10 18 -25 26 -31 14 -12 14
-14 -3 -26 -10 -8 -15 -19 -11 -25 4 -7 3 -12 -3 -12 -5 0 -12 6 -14 13 -3 6
-6 3 -6 -9 -1 -11 -5 -24 -9 -30 -24 -27 -61 -283 -69 -478 -6 -138 -13 -149
-97 -161 -72 -9 -89 -21 -82 -55 4 -22 1 -30 -13 -35 -16 -5 -19 -15 -17 -63
l1 -57 180 -17 c99 -9 243 -19 320 -22 178 -8 242 -14 335 -31 77 -15 93 -17
295 -36 264 -24 277 -23 296 24 7 18 19 36 26 40 7 4 13 19 13 32 0 13 5 27
10 30 18 11 10 44 -15 61 -14 9 -25 22 -25 30 0 7 -10 25 -23 39 -19 23 -35
28 -132 41 -61 7 -132 20 -160 28 -27 8 -117 20 -200 26 -82 6 -161 14 -174
16 -21 5 -22 6 -8 22 28 31 117 193 143 260 14 37 39 101 55 142 38 100 58
198 65 334 6 106 6 114 -14 134 -29 29 -57 18 -76 -29 -9 -22 -15 -43 -14 -47
2 -7 -30 -147 -39 -172 -4 -8 -7 -17 -8 -20 -1 -3 -7 -18 -13 -33 -7 -16 -12
-32 -12 -36 0 -23 -42 -60 -69 -59 -32 1 -54 -9 -46 -22 3 -5 1 -11 -5 -15
-15 -10 -12 -23 8 -28 9 -2 25 3 35 11 9 9 20 12 24 8 4 -4 1 -11 -7 -16 -15
-9 -17 -14 -19 -60 -1 -18 -4 -21 -10 -11 -5 7 -6 23 -3 35 3 12 1 17 -4 13
-5 -5 -10 -13 -10 -18 -1 -5 -2 -12 -3 -15 0 -4 -8 -1 -16 6 -10 9 -15 9 -15
1 0 -6 -7 -11 -15 -11 -8 0 -15 -4 -15 -10 0 -5 -6 -10 -13 -10 -7 0 -20 -9
-30 -20 -9 -11 -14 -20 -10 -20 4 0 -2 -7 -14 -15 -13 -9 -20 -22 -17 -30 4
-8 2 -15 -4 -15 -6 0 -13 14 -17 30 -4 18 -11 28 -18 24 -7 -3 -4 1 7 10 16
13 16 17 4 35 -8 12 -17 18 -20 16 -3 -3 -3 6 0 21 3 19 1 25 -7 20 -6 -4 -14
-1 -17 8 -3 8 -12 12 -20 9 -8 -3 -14 0 -14 7 0 6 -4 8 -10 5 -5 -3 -10 1 -10
9 0 21 12 20 43 -4 35 -28 40 -25 35 15 -5 40 10 50 40 29 24 -16 86 -8 75 10
-3 6 0 6 8 -1 17 -17 53 -17 43 -1 -5 8 -2 9 9 5 10 -3 17 -2 17 3 0 6 18 10
40 10 22 0 40 5 40 10 0 9 -5 11 -37 14 -14 1 -15 10 -2 45 5 13 7 26 4 29 -3
3 1 12 9 21 8 9 16 21 18 26 2 6 6 9 11 7 4 -1 7 2 7 7 0 5 -9 11 -21 14 -17
5 -19 9 -9 26 6 12 18 21 27 21 13 0 14 3 1 23 -12 18 -12 26 -1 47 7 14 10
33 7 43 -3 11 -1 16 7 15 7 -2 18 8 25 20 8 17 13 20 17 10 3 -7 6 -1 6 15 1
15 -4 27 -10 27 -8 0 -7 5 2 16 10 13 10 17 -2 25 -15 9 -14 10 46 14 43 3
191 -39 261 -74 36 -18 41 -24 36 -47 -8 -44 17 -204 54 -344 63 -240 85 -298
203 -539 54 -113 210 -232 283 -217 22 4 38 0 62 -19 18 -14 44 -25 58 -25 14
0 31 -7 38 -15 7 -8 16 -13 20 -10 5 3 11 1 15 -5 3 -5 11 -10 16 -10 6 0 8 4
5 9 -3 5 12 11 34 15 30 5 49 1 77 -14 21 -11 52 -23 69 -26 l32 -6 -2 -209
c-2 -168 0 -212 11 -221 8 -6 21 -24 29 -40 20 -39 52 -37 87 7 42 52 138 119
199 138 29 9 78 24 108 33 38 11 90 17 170 16 104 0 121 -3 172 -27 31 -14 63
-34 71 -43 22 -26 97 -176 97 -196 0 -9 9 -41 19 -71 11 -30 18 -71 15 -92 -6
-68 -27 -297 -28 -318 -3 -35 -28 -99 -53 -131 -12 -17 -23 -34 -23 -38 0 -16
-128 -185 -190 -250 -43 -45 -85 -78 -125 -98 -179 -86 -205 -109 -205 -179 0
-27 -9 -47 -38 -80 -48 -57 -88 -117 -97 -149 -4 -14 -13 -32 -20 -40 -7 -8
-25 -36 -39 -62 -15 -27 -58 -81 -96 -121 -39 -41 -85 -95 -104 -121 -18 -26
-71 -86 -117 -134 -46 -48 -104 -109 -129 -137 -25 -27 -70 -65 -100 -83 -56
-33 -131 -108 -174 -172 -14 -22 -38 -40 -62 -49 -21 -7 -55 -25 -74 -40 -19
-15 -46 -31 -60 -34 -14 -3 -61 -29 -105 -57 -43 -27 -86 -50 -95 -50 -9 0
-20 -4 -25 -9 -10 -9 -76 -37 -210 -91 -44 -17 -102 -42 -130 -55 -150 -68
-337 -128 -520 -166 -55 -11 -120 -27 -145 -36 -25 -9 -88 -20 -140 -23 -52
-4 -120 -14 -151 -24 l-56 -17 -6 -107 c-5 -104 -4 -108 19 -127 30 -26 30
-51 -1 -113 -27 -54 -36 -172 -13 -172 6 0 26 -17 44 -38 21 -24 66 -55 127
-86 93 -46 98 -48 209 -53 78 -4 132 -2 169 7 30 7 63 14 74 16 43 5 201 35
220 41 11 3 27 7 35 8 17 1 71 16 175 47 98 29 421 191 472 236 23 20 62 54
86 74 54 44 108 131 133 210 16 54 19 57 43 51 14 -3 37 -11 51 -18 14 -7 68
-25 120 -40 52 -15 129 -39 170 -53 139 -48 384 -185 488 -272 41 -34 37 -31
112 -87 62 -46 359 -344 441 -443 30 -36 74 -92 98 -125 25 -33 87 -102 138
-153 52 -52 110 -118 130 -148 39 -59 71 -84 106 -84 64 0 75 89 20 159 -35
44 -123 185 -123 198 0 4 -19 33 -42 64 -24 30 -80 105 -125 165 -154 206
-186 242 -363 422 -69 70 -151 145 -184 167 -32 22 -73 52 -90 66 -17 15 -65
47 -106 73 -41 26 -104 65 -140 88 -36 22 -101 55 -145 73 -44 17 -99 44 -122
58 -24 15 -47 27 -51 27 -5 0 -40 15 -78 34 -81 40 -135 52 -264 62 -144 10
-151 11 -207 19 -29 4 -53 11 -53 15 0 5 29 26 64 49 35 22 67 45 71 51 3 5
17 10 30 10 13 0 26 4 30 9 3 6 36 24 73 41 37 18 86 45 110 61 24 16 62 39
85 51 35 17 119 94 296 269 39 38 93 102 129 150 98 133 122 168 122 176 0 5
25 48 55 97 30 48 55 90 55 93 0 3 10 19 23 36 37 52 125 198 158 263 25 48
43 68 83 92 28 17 80 60 116 95 111 108 302 345 336 417 48 100 64 142 64 168
0 43 20 105 41 128 34 37 126 255 153 364 15 58 33 128 42 155 12 38 15 94 15
238 0 104 -3 192 -5 195 -2 4 -9 50 -15 102 -6 52 -17 111 -23 130 -6 19 -21
80 -34 135 -12 55 -32 132 -43 170 -12 39 -25 93 -30 120 -5 28 -18 84 -29
125 -11 41 -27 116 -36 165 -8 50 -17 101 -20 115 -2 14 -11 61 -20 105 -9 44
-16 97 -16 118 0 99 -77 435 -125 542 -14 32 -31 81 -39 109 -24 85 -65 189
-91 226 -31 46 -60 125 -86 230 -21 89 -102 313 -150 415 -16 34 -44 79 -62
100 -19 22 -40 51 -47 65 -22 42 -164 232 -209 279 -22 24 -41 48 -41 52 0 13
-164 117 -210 132 -25 9 -62 23 -82 31 -21 9 -51 16 -68 16 -17 0 -41 5 -52
11 -11 6 -53 17 -92 24 -39 7 -87 19 -106 26 -54 20 -280 138 -328 171 -45 31
-237 108 -269 108 -10 0 -31 7 -48 16 -53 28 -127 34 -320 24z m265 -164 c72
-14 100 -24 100 -37 0 -25 -237 -146 -360 -184 -30 -9 -102 -32 -160 -50 -58
-18 -130 -38 -160 -45 -30 -7 -62 -17 -70 -21 -18 -10 -286 -99 -385 -128
-103 -30 -194 -60 -245 -81 -25 -10 -76 -30 -115 -45 -124 -47 -408 -225 -521
-325 -28 -25 -82 -72 -119 -105 -120 -104 -204 -210 -205 -257 0 -16 -34 -31
-145 -59 -27 -7 -70 -21 -95 -32 -25 -10 -82 -30 -128 -43 -46 -13 -110 -35
-142 -49 -33 -14 -62 -25 -65 -25 -6 0 32 58 45 70 3 3 37 43 76 90 39 47 98
112 130 146 62 64 265 228 345 279 26 17 67 44 91 61 62 45 319 179 410 214
102 39 436 208 518 262 36 23 81 51 100 61 19 11 64 39 100 62 276 180 259
171 361 189 46 9 98 20 114 25 107 35 136 38 295 38 91 1 194 -5 230 -11z
m241 -87 c15 -10 31 -19 37 -19 5 0 21 -9 36 -21 26 -21 26 -21 9 -49 -28 -43
-180 -180 -275 -248 -48 -34 -147 -92 -220 -127 -73 -36 -176 -87 -228 -115
-52 -27 -98 -50 -102 -50 -4 0 -40 -15 -80 -34 -40 -18 -127 -55 -193 -81
-140 -55 -486 -222 -531 -256 -138 -104 -181 -139 -197 -157 -18 -20 -27 -21
-297 -20 -323 2 -306 -9 -187 112 68 69 258 217 360 282 26 16 70 45 98 65 27
21 64 43 82 50 18 7 63 33 102 56 38 24 77 43 87 43 10 0 51 13 91 29 39 16
130 46 201 66 71 20 141 42 155 49 14 8 68 26 120 40 95 27 258 91 275 107 6
5 18 9 28 9 24 0 215 77 247 99 14 10 62 37 106 59 44 23 107 64 140 92 65 54
84 56 136 19z m-1201 -29 c0 -5 -30 -24 -67 -42 -38 -19 -101 -55 -141 -82
-78 -51 -260 -151 -295 -162 -12 -4 -69 -30 -127 -60 -58 -29 -118 -56 -135
-59 -16 -4 -39 -13 -50 -20 -11 -6 -36 -17 -55 -23 -19 -7 -105 -51 -190 -98
-85 -48 -170 -95 -188 -105 -18 -9 -49 -30 -69 -46 -20 -15 -78 -57 -129 -93
-192 -136 -306 -235 -400 -350 -29 -36 -78 -92 -109 -125 -68 -72 -125 -163
-125 -198 0 -23 -15 -33 -142 -96 -79 -39 -168 -90 -198 -113 -68 -51 -151
-101 -158 -94 -2 3 29 47 70 98 41 51 90 118 110 148 19 30 74 91 122 134 82
76 224 250 346 428 34 49 76 94 107 116 28 21 82 63 119 95 38 32 94 74 124
93 167 106 361 214 490 273 41 18 113 55 160 81 47 26 119 60 160 75 41 15
111 45 155 66 44 21 103 45 130 53 28 8 88 26 135 40 234 69 350 92 350 66z
m1401 -86 l40 -25 -23 -39 c-132 -223 -306 -394 -640 -633 -29 -20 -82 -58
-118 -84 -73 -54 -78 -57 -175 -108 -38 -20 -79 -45 -90 -54 -11 -10 -33 -26
-50 -36 -16 -10 -65 -52 -108 -94 l-77 -75 -93 12 c-110 14 -241 37 -294 51
-21 6 -61 11 -90 11 -28 0 -54 4 -57 8 -10 17 61 70 193 146 70 40 412 182
476 197 66 15 75 20 490 226 167 84 237 134 363 263 93 96 192 224 192 250 0
16 18 12 61 -16z m169 -94 c0 -4 -13 -46 -28 -92 -27 -77 -44 -118 -108 -254
-13 -28 -24 -57 -24 -65 0 -38 -175 -322 -320 -519 -56 -76 -60 -83 -125 -193
-31 -53 -61 -99 -65 -102 -5 -3 -32 3 -62 14 -29 11 -87 29 -128 41 -41 12
-86 25 -100 30 -14 5 -61 16 -105 25 -44 9 -107 26 -141 36 -33 10 -70 19 -82
19 -32 0 -34 15 -4 42 62 57 180 127 274 161 61 22 105 48 295 179 123 84 305
225 375 290 78 72 172 189 220 273 82 141 87 147 108 135 11 -6 20 -15 20 -20z
m190 -40 c28 -8 27 13 9 -225 -6 -77 -15 -225 -19 -330 -13 -291 -30 -461 -55
-540 -7 -22 -16 -83 -20 -135 -7 -104 -23 -206 -36 -232 -10 -19 -21 -15 -244
82 -130 57 -222 93 -300 117 -27 8 -53 17 -57 20 -10 5 13 50 62 123 20 30 67
100 102 155 36 55 82 123 103 150 77 100 206 345 225 425 7 30 24 93 38 140
27 95 47 176 57 233 l6 38 52 -7 c29 -4 63 -10 77 -14z m181 -44 c30 -7 65
-19 77 -25 39 -21 112 -72 112 -79 1 -4 2 -97 4 -207 3 -199 7 -231 51 -390 8
-27 24 -88 35 -135 12 -47 27 -98 34 -115 7 -16 19 -43 25 -59 20 -49 39 -184
45 -316 4 -69 10 -154 16 -190 5 -36 7 -90 4 -120 -8 -86 -36 -250 -43 -250
-3 0 -44 32 -90 70 -46 39 -87 70 -91 70 -3 0 -32 19 -63 43 -117 88 -179 129
-238 159 -33 17 -63 37 -66 45 -3 8 3 43 15 77 20 59 29 105 52 271 6 44 18
103 25 130 39 143 48 398 27 781 -12 205 -10 255 7 254 3 -1 31 -7 62 -14z
m301 -218 c13 -18 29 -44 35 -58 6 -14 40 -64 75 -111 78 -104 116 -164 152
-244 39 -86 83 -204 91 -245 7 -39 21 -87 40 -140 7 -19 19 -57 28 -85 8 -27
26 -77 38 -110 21 -54 24 -78 25 -230 1 -189 9 -445 20 -605 8 -117 7 -227 -2
-241 -5 -8 -178 146 -292 260 -50 49 -49 36 -9 221 27 126 28 173 9 515 -11
188 -25 265 -77 400 -15 39 -38 108 -52 155 -13 47 -31 105 -39 130 -52 159
-75 255 -81 333 -7 97 0 107 39 55z m-4418 -673 c-9 -14 -20 -25 -25 -25 -4 0
-25 -22 -46 -49 -21 -27 -74 -79 -119 -114 -45 -36 -96 -85 -115 -109 -18 -24
-61 -73 -96 -110 -34 -37 -70 -80 -80 -95 -10 -15 -41 -59 -69 -96 -28 -38
-64 -94 -80 -124 -16 -31 -40 -66 -54 -78 -92 -82 -128 -114 -152 -131 -14
-10 -58 -48 -97 -83 -39 -34 -71 -58 -71 -52 0 5 26 41 58 79 69 83 156 201
218 297 52 80 284 321 426 443 54 46 111 101 129 123 17 22 63 61 100 86 38
24 69 49 69 54 0 5 5 9 10 9 6 0 3 -11 -6 -25z m1765 -130 c2 -2 -6 -35 -17
-72 -70 -228 -86 -300 -92 -408 l-5 -110 -254 2 c-155 2 -270 -1 -294 -8 -21
-6 -41 -8 -43 -6 -3 2 0 24 6 48 17 74 48 241 55 297 4 32 26 92 56 152 26 55
50 101 51 101 23 12 525 15 537 4z m-632 -27 c-64 -91 -113 -181 -128 -234 -9
-34 -24 -77 -33 -96 -22 -48 -35 -105 -40 -177 -3 -35 -9 -68 -13 -72 -11 -10
-205 -57 -268 -65 -27 -3 -77 -14 -110 -24 -33 -10 -87 -26 -120 -35 -33 -10
-66 -20 -72 -22 -25 -10 -8 64 31 137 8 14 17 41 21 60 9 44 87 202 126 254
16 22 29 44 29 49 0 4 14 29 31 53 35 51 59 64 240 125 106 35 239 66 298 68
22 1 23 0 8 -21z m888 -3 c39 -7 113 -16 165 -19 104 -7 290 -36 290 -45 3
-232 1 -311 -9 -431 -7 -86 -17 -150 -24 -157 -10 -10 -24 -9 -70 3 -51 13
-173 30 -259 36 -30 2 -34 8 -17 25 7 7 6 12 -5 16 -10 4 -16 1 -16 -7 0 -19
-250 -12 -262 7 -10 15 -1 314 12 382 5 28 14 83 20 124 6 41 13 78 16 83 6 9
45 4 159 -17z m700 -112 c44 -13 130 -37 190 -54 61 -17 132 -39 159 -50 27
-10 54 -19 62 -19 7 0 26 -8 42 -17 35 -20 51 -75 76 -259 13 -96 15 -349 2
-361 -2 -2 -34 8 -72 22 -38 15 -103 37 -144 51 -41 13 -88 29 -105 36 -37 13
-226 57 -278 65 -20 3 -40 10 -45 17 -4 6 -7 94 -8 196 0 134 -5 203 -17 250
-13 55 -22 124 -18 153 1 10 58 0 156 -30z m-2285 -93 c0 -5 -12 -24 -28 -42
-15 -18 -43 -58 -63 -88 -101 -156 -139 -235 -179 -370 -12 -41 -28 -80 -34
-86 -6 -6 -65 -35 -131 -64 -66 -29 -125 -56 -130 -61 -6 -4 -36 -17 -67 -29
-31 -11 -75 -34 -98 -51 -23 -17 -44 -28 -47 -25 -9 8 19 150 33 166 11 13 24
46 79 192 16 41 115 197 136 214 20 16 111 62 279 141 80 38 165 78 190 90 52
25 60 27 60 13z m2908 -119 c9 -5 44 -19 77 -32 33 -12 114 -48 180 -80 66
-31 149 -69 185 -85 36 -15 86 -41 112 -58 39 -25 46 -34 46 -60 0 -17 13 -74
30 -126 21 -69 32 -125 37 -205 3 -60 13 -157 21 -214 8 -57 13 -105 10 -108
-3 -3 -18 4 -33 16 -15 12 -68 46 -118 75 -49 29 -122 71 -160 94 -39 23 -85
47 -103 53 -55 19 -226 109 -239 125 -6 8 -9 27 -7 42 15 104 15 174 -1 257
-14 78 -48 219 -71 293 -7 24 4 28 34 13z m1672 -181 c0 -8 11 -55 24 -105 22
-83 47 -199 76 -350 6 -33 16 -96 21 -140 5 -44 16 -102 23 -130 8 -27 18 -72
22 -100 3 -27 15 -88 25 -135 10 -46 16 -87 13 -89 -3 -3 -50 42 -104 99 -66
70 -97 110 -93 120 14 35 20 180 16 390 -4 192 -8 241 -29 335 -13 60 -24 123
-24 140 l1 30 14 -25 c8 -14 14 -32 15 -40z m-5328 -117 c-48 -91 -127 -281
-137 -328 -3 -16 -18 -63 -32 -102 -22 -64 -32 -78 -77 -110 -28 -21 -62 -45
-77 -53 -14 -8 -39 -25 -55 -38 -213 -170 -257 -203 -262 -198 -6 7 11 115 36
221 16 70 114 254 179 336 31 39 201 179 273 225 63 40 164 93 168 89 2 -2 -5
-21 -16 -42z m4543 -182 c58 -41 315 -263 362 -312 66 -69 91 -164 103 -389 5
-96 13 -212 16 -257 4 -53 3 -83 -3 -83 -6 0 -66 55 -134 123 -68 67 -158 148
-199 179 -41 32 -97 77 -124 101 l-50 44 -2 99 c-3 92 -13 168 -35 271 -5 23
-9 54 -9 70 -1 15 -16 73 -36 128 -19 55 -37 108 -41 119 -6 18 11 8 152 -93z
m-886 -290 c9 -6 14 -27 14 -63 -1 -29 3 -60 8 -69 4 -9 6 -19 2 -23 -10 -10
-63 115 -63 151 0 15 18 17 39 4z m41 -31 c0 -5 -4 -10 -10 -10 -5 0 -10 5
-10 10 0 6 5 10 10 10 6 0 10 -4 10 -10z m-4415 -40 c-20 -64 -54 -333 -47
-379 9 -66 -64 -124 -182 -143 -103 -16 -109 -12 -90 54 47 161 94 240 237
404 73 84 93 100 82 64z m4410 -110 c3 -5 1 -10 -4 -10 -6 0 -11 5 -11 10 0 6
2 10 4 10 3 0 8 -4 11 -10z m1628 -277 c128 -151 132 -158 155 -283 33 -180
36 -230 19 -281 -9 -25 -20 -96 -26 -158 -14 -148 -24 -164 -56 -88 -28 68
-46 100 -82 142 -47 55 -133 163 -166 206 -25 34 -27 42 -27 145 0 60 -5 138
-10 174 -5 36 -10 103 -11 150 -1 47 -8 119 -15 160 -8 41 -14 77 -14 80 0 7
170 -172 233 -247z m-3576 231 c-3 -3 -12 -4 -19 -1 -8 3 -5 6 6 6 11 1 17 -2
13 -5z m962 -51 c1 -7 -3 -13 -9 -13 -5 0 -10 15 -9 33 0 27 2 29 9 12 5 -11
9 -26 9 -32z m-734 28 c3 -5 1 -12 -5 -16 -5 -3 -10 1 -10 9 0 18 6 21 15 7z
m152 3 c-3 -3 -12 -4 -19 -1 -8 3 -5 6 6 6 11 1 17 -2 13 -5z m-232 -14 c-3
-5 -10 -10 -16 -10 -5 0 -9 5 -9 10 0 6 7 10 16 10 8 0 12 -4 9 -10z m1852
-12 c-3 -8 -6 -5 -6 6 -1 11 2 17 5 13 3 -3 4 -12 1 -19z m-2236 -32 c5 -6 9
-14 9 -19 0 -5 -8 1 -19 14 -10 13 -16 30 -13 39 5 12 7 11 10 -5 2 -11 8 -24
13 -29z m16 22 c-3 -8 -6 -5 -6 6 -1 11 2 17 5 13 3 -3 4 -12 1 -19z m553 11
c0 -6 -4 -8 -9 -4 -6 3 -14 -2 -19 -12 -11 -21 0 -63 12 -45 14 23 26 12 16
-14 -12 -30 2 -64 27 -64 13 0 13 -3 3 -15 -17 -20 -28 -19 -26 2 0 10 -5 18
-12 18 -7 0 -17 7 -22 15 -7 10 -10 11 -11 3 -3 -28 -4 -32 -11 -39 -5 -4 -8
-2 -8 5 0 7 -4 9 -10 6 -5 -3 -10 1 -10 9 0 9 5 16 11 16 6 0 9 6 6 14 -3 8
-3 17 1 21 4 3 7 19 8 35 1 16 4 35 7 42 6 16 47 21 47 7z m-1392 -44 c5 -6 7
-16 5 -22 -3 -7 1 -20 7 -30 10 -16 11 -15 6 5 -4 19 -2 21 10 11 8 -7 12 -20
9 -30 -4 -10 -2 -26 3 -35 7 -13 12 -6 22 32 l13 49 10 -32 c5 -18 14 -33 18
-33 5 0 9 -4 9 -10 0 -5 -7 -10 -15 -10 -19 0 -37 -42 -22 -52 6 -4 15 -4 19
-2 4 3 5 -2 2 -10 -3 -9 -10 -13 -15 -10 -5 3 -9 -4 -9 -15 0 -43 -21 -31 -34
19 0 3 -8 24 -17 45 -14 34 -39 110 -56 165 -3 9 2 7 11 -5 8 -11 19 -25 24
-30z m392 25 c0 -11 -4 -20 -10 -20 -5 0 -10 9 -10 20 0 11 5 20 10 20 6 0 10
-9 10 -20z m118 3 c2 -7 -3 -13 -12 -13 -9 0 -16 -5 -16 -11 0 -6 -6 -9 -12
-6 -13 4 -18 25 -10 40 6 12 45 4 50 -10z m64 -7 c-16 -18 -16 -19 1 -13 12 5
17 1 17 -13 0 -10 -4 -22 -10 -25 -5 -3 -10 -1 -10 4 0 6 -5 10 -11 9 -15 -4
-31 50 -17 54 6 2 18 4 29 4 17 0 17 -1 1 -20z m1661 -6 c-5 -20 -15 -25 -26
-13 -8 7 11 33 23 33 5 0 6 -9 3 -20z m-1038 0 c3 -5 1 -10 -4 -10 -6 0 -11 5
-11 10 0 6 2 10 4 10 3 0 8 -4 11 -10z m-24 -28 c-13 -2 -18 -9 -15 -20 5 -14
4 -14 -6 1 -6 10 -9 25 -6 33 5 12 9 12 26 2 20 -13 20 -13 1 -16z m388 12
c17 11 13 -16 -8 -47 l-18 -28 -6 23 c-4 12 -2 27 3 32 4 4 6 16 3 25 -4 13
-3 13 5 2 5 -7 15 -10 21 -7z m1526 7 c10 -17 -12 -21 -25 -6 -10 12 -10 15 3
15 9 0 18 -4 22 -9z m-2305 -23 c0 -5 5 -6 10 -3 6 3 10 1 10 -5 0 -6 5 -8 10
-5 6 3 10 -1 10 -9 0 -10 -8 -15 -22 -13 -16 1 -23 -3 -23 -15 0 -9 -4 -20 -8
-24 -4 -4 -7 -2 -7 5 0 8 -6 11 -16 7 -13 -5 -15 -1 -12 19 3 14 1 25 -5 25
-6 0 -2 9 7 19 17 19 46 19 46 -1z m670 12 c0 -5 -2 -10 -4 -10 -3 0 -8 5 -11
10 -3 6 -1 10 4 10 6 0 11 -4 11 -10z m-1010 -10 c0 -5 -5 -10 -11 -10 -5 0
-7 5 -4 10 3 6 8 10 11 10 2 0 4 -4 4 -10z m825 -67 c-6 -17 -7 -17 -19 -1 -9
12 -16 14 -23 7 -6 -6 -16 -9 -21 -5 -14 8 -22 45 -11 52 5 3 8 0 7 -8 -2 -7
6 -13 17 -13 11 0 21 7 21 15 1 8 2 20 3 25 1 6 9 -5 17 -22 9 -18 13 -41 9
-50z m-1073 58 c9 -1 -3 -41 -13 -41 -5 0 -9 7 -9 16 0 11 -6 14 -22 8 -20 -6
-21 -5 -10 9 7 8 21 14 30 12 9 -2 20 -4 24 -4z m684 -21 c9 0 13 -4 9 -10 -3
-6 -15 -5 -31 2 -18 8 -21 14 -12 19 7 5 15 4 16 -1 2 -6 10 -10 18 -10z m100
2 c-8 -8 -19 -11 -25 -7 -16 9 -6 21 18 21 18 0 19 -2 7 -14z m-536 -8 c0 -2
-9 -4 -21 -4 -11 0 -18 4 -14 10 5 8 35 3 35 -6z m482 1 c0 -5 -5 -11 -11 -13
-6 -2 -11 4 -11 13 0 9 5 15 11 13 6 -2 11 -8 11 -13z m-1408 -11 c8 -22 8
-24 -8 -24 -21 0 -40 27 -24 33 22 9 26 8 32 -9z m773 0 c-3 -3 -12 -4 -19 -1
-8 3 -5 6 6 6 11 1 17 -2 13 -5z m727 -23 c-2 -3 -12 3 -22 13 -16 17 -16 18
5 5 12 -7 20 -15 17 -18z m166 19 c0 -5 -4 -10 -10 -10 -5 0 -10 5 -10 10 0 6
5 10 10 10 6 0 10 -4 10 -10z m-960 -19 c-1 -14 -19 -35 -26 -28 -4 4 -13 2
-21 -4 -10 -9 -13 -8 -13 2 0 11 -2 11 -10 -1 -8 -13 -10 -12 -10 3 0 10 -4
15 -10 12 -5 -3 -10 -2 -10 4 0 5 6 11 13 14 19 6 87 5 87 -2z m352 -35 l-4
-36 -19 24 c-24 30 -24 43 -1 49 26 5 28 1 24 -37z m246 16 c2 -7 -5 -12 -17
-12 -14 0 -19 5 -14 15 6 17 25 15 31 -3z m-1873 -1 c-6 -5 -21 -12 -35 -16
-24 -7 -24 -7 -5 9 21 16 56 23 40 7z m1834 -58 c1 -13 -3 -23 -8 -23 -5 0 -7
9 -4 20 3 11 1 20 -5 20 -6 0 -8 10 -4 22 5 21 6 21 13 2 4 -10 8 -29 8 -41z
m501 47 c0 -5 -4 -10 -10 -10 -5 0 -10 5 -10 10 0 6 5 10 10 10 6 0 10 -4 10
-10z m-50 -16 c0 -2 -7 -4 -15 -4 -8 0 -15 4 -15 10 0 5 7 7 15 4 8 -4 15 -8
15 -10z m-2350 -38 c0 -3 -4 -8 -10 -11 -5 -3 -10 -1 -10 4 0 6 5 11 10 11 6
0 10 -2 10 -4z m258 -49 c8 -9 12 -20 8 -24 -4 -5 -12 0 -17 10 -6 9 -17 17
-24 17 -18 0 -19 7 -2 24 8 10 13 11 16 3 2 -7 10 -20 19 -30z m42 19 c0 -3
-4 -8 -10 -11 -5 -3 -10 -1 -10 4 0 6 5 11 10 11 6 0 10 -2 10 -4z m-83 -24
c10 -6 9 -14 -2 -35 -12 -24 -12 -28 3 -37 15 -9 15 -12 -8 -31 l-25 -21 -5
38 c-5 34 -6 36 -12 15 -4 -12 -11 -20 -16 -17 -13 8 -43 -4 -37 -14 3 -4 -2
-13 -10 -20 -18 -15 -19 -9 -3 27 15 33 28 44 46 38 6 -2 12 0 12 5 0 6 -6 10
-12 10 -7 1 -1 8 15 16 15 8 27 19 27 24 0 12 11 13 27 2z m-110 -169 c1 -22
-1 -24 -8 -10 -8 13 -14 15 -29 7 -30 -16 -34 -12 -9 10 33 27 44 25 46 -7z
m37 -20 c-9 -38 -21 -50 -36 -34 -11 10 -9 11 6 5 11 -4 17 -3 14 2 -6 10 8
54 17 54 3 0 2 -12 -1 -27z m-619 -3 c3 -5 1 -10 -4 -10 -6 0 -11 5 -11 10 0
6 2 10 4 10 3 0 8 -4 11 -10z m45 0 c0 -5 -4 -10 -10 -10 -5 0 -10 5 -10 10 0
6 5 10 10 10 6 0 10 -4 10 -10z m508 -19 c-1 -15 2 -33 6 -40 4 -6 1 -11 -8
-11 -8 0 -17 -6 -20 -12 -3 -9 -9 -7 -20 6 -18 22 -21 52 -6 61 6 3 10 -1 10
-11 0 -13 3 -14 15 -4 8 7 15 19 15 26 0 8 2 14 4 14 3 0 4 -13 4 -29z m6002
-308 c1 -10 12 -49 27 -88 32 -88 38 -154 24 -305 -18 -194 -38 -261 -55 -179
-3 17 -18 57 -32 89 -24 54 -25 62 -15 131 6 41 13 106 17 144 4 39 8 77 10
85 1 8 3 43 3 78 1 34 5 62 11 62 6 0 10 -8 10 -17z m-2056 -3466 c10 -90 33
-164 57 -181 21 -14 21 -15 3 -46 -26 -44 -176 -140 -265 -169 -20 -6 -51 -23
-69 -36 -19 -14 -45 -25 -59 -25 -14 0 -39 -7 -55 -15 -15 -8 -54 -15 -87 -15
-32 0 -60 -4 -63 -9 -3 -5 -32 -11 -63 -14 -32 -4 -80 -11 -108 -17 -27 -6
-64 -13 -82 -15 -17 -2 -58 -11 -90 -19 -32 -8 -102 -17 -155 -21 -109 -8
-107 -9 -134 85 -7 25 -24 77 -38 115 l-25 70 27 3 c29 3 197 38 247 52 17 4
57 13 90 20 33 7 85 19 115 27 30 8 75 19 100 25 25 6 50 14 55 18 6 5 53 25
105 45 52 21 118 49 145 62 48 24 76 35 209 83 33 12 71 30 84 41 35 27 48 12
56 -64z"/>
<path d="M3666 5535 c4 -8 8 -15 10 -15 2 0 4 7 4 15 0 8 -4 15 -10 15 -5 0
-7 -7 -4 -15z"/>
<path d="M409 7119 c-68 -15 -110 -78 -89 -135 11 -28 28 -33 131 -39 74 -5
171 -23 290 -55 20 -6 70 -10 111 -10 65 0 81 -4 114 -26 21 -15 41 -28 43
-30 2 -2 -14 -29 -35 -61 -37 -57 -201 -225 -460 -474 l-130 -126 -3 -53 c-2
-50 0 -54 42 -95 26 -25 63 -48 93 -57 68 -22 248 -56 414 -78 41 -6 112 -22
158 -36 83 -25 84 -25 120 -6 79 40 85 120 13 168 -39 25 -75 35 -236 60 -54
8 -106 19 -115 24 -9 5 -68 12 -131 15 -63 4 -120 8 -128 11 -9 3 5 22 40 55
262 248 382 381 497 553 59 88 86 201 59 252 -36 70 -70 81 -292 98 -33 3 -94
11 -135 19 -41 9 -93 18 -115 22 -54 9 -216 12 -256 4z"/>
<path d="M7037 5883 c-4 -3 -7 -11 -7 -17 0 -6 5 -5 12 2 6 6 9 14 7 17 -3 3
-9 2 -12 -2z"/>
<path d="M6840 5780 c-8 -5 -12 -11 -9 -14 3 -3 14 1 25 9 21 16 8 20 -16 5z"/>
<path d="M6845 5700 c-3 -5 1 -10 9 -10 9 0 16 5 16 10 0 6 -4 10 -9 10 -6 0
-13 -4 -16 -10z"/>
<path d="M1401 5342 c-34 -17 -76 -50 -153 -118 -35 -30 -94 -71 -133 -90
-114 -58 -173 -126 -160 -185 8 -36 55 -64 94 -54 25 6 69 39 142 107 35 31
114 85 201 137 33 19 42 21 49 10 10 -17 1 -123 -14 -159 -13 -33 -15 -47 -17
-165 -1 -55 -7 -128 -12 -163 -9 -56 -7 -66 11 -96 34 -54 81 -61 146 -21 22
13 56 33 75 43 19 11 51 35 71 53 20 19 61 52 92 74 31 22 56 43 57 47 0 4 29
31 65 58 49 40 66 59 71 85 7 37 -8 71 -33 79 -78 21 -80 21 -136 -37 -71 -75
-179 -171 -221 -195 l-34 -20 5 41 c5 48 39 191 53 225 17 40 15 214 -3 248
-51 95 -140 135 -216 96z"/>
<path d="M8944 4539 c-33 -4 -82 -17 -107 -29 -73 -34 -155 -136 -130 -161 7
-7 22 1 49 26 52 49 86 66 148 72 61 6 118 -17 160 -67 22 -27 26 -41 26 -98
0 -37 -7 -102 -14 -145 -11 -64 -23 -91 -61 -149 -40 -61 -45 -74 -36 -94 6
-15 22 -25 44 -29 67 -13 127 42 167 151 35 94 43 152 37 268 -5 96 -9 114
-34 155 -21 35 -42 53 -83 73 -70 33 -91 37 -166 27z"/>
<path d="M7145 4504 c-22 -7 -47 -18 -55 -22 -8 -5 -40 -15 -70 -21 -30 -7
-73 -18 -95 -24 -24 -6 -149 -11 -310 -12 -307 -2 -345 -9 -345 -62 0 -47 88
-130 190 -179 79 -39 93 -42 190 -47 58 -3 128 -1 155 4 28 5 75 12 105 15 33
4 90 23 145 50 50 23 124 56 165 73 55 22 81 39 98 63 44 65 20 129 -57 152
-25 8 -53 16 -61 19 -8 3 -33 -1 -55 -9z"/>
<path d="M8115 4490 c-9 -15 4 -30 26 -30 12 0 19 7 19 20 0 21 -33 29 -45 10z"/>
<path d="M8140 4250 c-8 -14 -8 -26 0 -40 14 -26 46 -25 61 2 10 18 8 24 -11
40 -28 23 -37 23 -50 -2z"/>
<path d="M1970 4212 c-23 -7 -61 -45 -71 -70 -11 -30 11 -85 43 -105 13 -9 74
-20 148 -27 116 -11 153 -15 173 -19 12 -2 8 -29 -6 -43 -8 -7 -20 -25 -27
-38 -7 -14 -27 -43 -45 -65 -45 -57 -84 -128 -101 -185 -13 -44 -13 -53 1 -80
8 -16 25 -35 36 -41 22 -12 86 -6 117 10 38 21 183 64 276 83 110 22 146 47
146 100 0 40 -14 62 -53 85 -30 18 -36 19 -72 6 -22 -8 -68 -16 -103 -18 -35
-2 -70 -9 -78 -16 -20 -16 -31 -2 -16 19 70 98 107 188 98 237 -10 52 -60 104
-108 111 -22 4 -47 14 -55 23 -12 12 -32 15 -77 14 -34 -2 -72 1 -86 6 -30 11
-119 19 -140 13z"/>
<path d="M4865 4189 c-27 -11 -79 -29 -115 -40 -36 -10 -78 -23 -95 -29 -64
-20 -240 -47 -390 -59 -60 -5 -130 -13 -155 -16 -25 -4 -64 -2 -87 3 -48 11
-86 -2 -91 -32 -5 -22 50 -81 93 -101 109 -52 144 -58 345 -61 184 -3 204 -1
344 27 229 46 286 92 286 228 0 52 -3 63 -22 75 -40 24 -62 25 -113 5z"/>
<path d="M7567 4204 c-9 -10 4 -34 19 -34 8 0 14 9 14 20 0 19 -19 27 -33 14z"/>
<path d="M8414 4165 c-4 -9 -2 -21 4 -27 15 -15 44 -1 40 19 -4 23 -36 29 -44
8z"/>
<path d="M7860 4065 c-10 -12 -10 -18 0 -30 15 -18 30 -11 30 15 0 26 -15 33
-30 15z"/>
<path d="M5437 4004 c-19 -19 -27 -40 -32 -82 -4 -31 -11 -73 -17 -92 -10 -35
-23 -173 -33 -349 -3 -52 -12 -116 -19 -142 -17 -54 -21 -273 -7 -333 15 -63
93 -133 217 -195 89 -44 112 -52 141 -46 19 3 68 1 109 -5 83 -13 103 -9 121
20 30 46 -43 110 -125 110 -90 0 -251 44 -303 82 -56 42 -63 74 -56 256 4 91
16 212 27 271 10 58 33 180 50 271 36 196 36 200 9 234 -26 33 -49 33 -82 0z"/>
<path d="M7975 3990 c-4 -6 -3 -16 3 -22 6 -6 12 -6 17 2 4 6 3 16 -3 22 -6 6
-12 6 -17 -2z"/>
<path d="M7128 3979 c-26 -14 -23 -61 5 -87 42 -39 90 -24 90 29 0 52 -52 84
-95 58z"/>
<path d="M6580 3890 c0 -5 5 -10 10 -10 6 0 10 5 10 10 0 6 -4 10 -10 10 -5 0
-10 -4 -10 -10z"/>
<path d="M7572 3854 c4 -21 22 -23 26 -1 2 10 -3 17 -13 17 -10 0 -15 -6 -13
-16z"/>
<path d="M5660 3826 c0 -10 9 -16 21 -16 24 0 21 23 -4 28 -10 2 -17 -3 -17
-12z"/>
<path d="M3485 3820 c3 -5 8 -10 11 -10 2 0 4 5 4 10 0 6 -5 10 -11 10 -5 0
-7 -4 -4 -10z"/>
<path d="M5056 3751 c-4 -5 -2 -12 3 -15 5 -4 12 -2 15 3 4 5 2 12 -3 15 -5 4
-12 2 -15 -3z"/>
<path d="M4720 3715 c0 -8 5 -15 10 -15 6 0 10 7 10 15 0 8 -4 15 -10 15 -5 0
-10 -7 -10 -15z"/>
<path d="M6814 3695 c-8 -19 12 -36 33 -28 19 7 12 37 -10 41 -9 2 -20 -4 -23
-13z"/>
<path d="M5632 3689 c2 -6 8 -10 13 -10 5 0 11 4 13 10 2 6 -4 11 -13 11 -9 0
-15 -5 -13 -11z"/>
<path d="M6680 3660 c0 -5 5 -10 10 -10 6 0 10 5 10 10 0 6 -4 10 -10 10 -5 0
-10 -4 -10 -10z"/>
<path d="M4100 3565 c0 -9 5 -15 11 -13 6 2 11 8 11 13 0 5 -5 11 -11 13 -6 2
-11 -4 -11 -13z"/>
<path d="M5850 3571 c0 -6 5 -13 10 -16 6 -3 10 1 10 9 0 9 -4 16 -10 16 -5 0
-10 -4 -10 -9z"/>
<path d="M5900 3555 c-10 -12 -10 -18 0 -30 7 -8 18 -15 25 -15 20 0 26 28 9
45 -19 18 -19 18 -34 0z"/>
<path d="M7390 3535 c0 -9 5 -15 11 -13 6 2 11 8 11 13 0 5 -5 11 -11 13 -6 2
-11 -4 -11 -13z"/>
<path d="M4350 3515 c0 -9 6 -12 15 -9 8 4 15 10 15 15 0 5 -7 9 -15 9 -8 0
-15 -7 -15 -15z"/>
<path d="M4812 3504 c4 -21 22 -23 26 -1 2 10 -3 17 -13 17 -10 0 -15 -6 -13
-16z"/>
<path d="M6896 3493 c-11 -11 -6 -23 9 -23 8 0 15 4 15 9 0 13 -16 22 -24 14z"/>
<path d="M3966 3435 c-6 -17 9 -29 24 -20 14 9 12 22 -4 28 -8 3 -17 -1 -20
-8z"/>
<path d="M3562 3408 c5 -15 28 -18 29 -3 0 6 -7 12 -17 13 -10 3 -15 -1 -12
-10z"/>
<path d="M5540 3390 c0 -5 4 -10 9 -10 6 0 13 5 16 10 3 6 -1 10 -9 10 -9 0
-16 -4 -16 -10z"/>
<path d="M4163 3354 c-8 -21 13 -42 28 -27 13 13 5 43 -11 43 -6 0 -13 -7 -17
-16z"/>
<path d="M3834 3335 c-7 -17 4 -37 17 -30 12 8 12 45 -1 45 -6 0 -13 -7 -16
-15z"/>
<path d="M5016 3261 c-3 -5 0 -14 8 -20 10 -8 16 -8 25 2 6 8 8 17 4 20 -9 10
-31 9 -37 -2z"/>
<path d="M6317 2712 c-28 -30 -48 -104 -45 -159 l3 -51 -64 -59 c-88 -80 -130
-110 -171 -120 -38 -10 -36 -2 -32 -118 l2 -55 33 0 c17 0 56 12 86 25 51 24
165 114 203 159 16 20 16 20 65 -7 28 -15 75 -29 107 -33 53 -6 59 -5 86 21
17 16 30 37 30 48 0 32 -56 92 -112 119 -90 44 -138 108 -138 183 0 18 -7 41
-16 49 -19 20 -17 20 -37 -2z"/>
<path d="M5780 2303 c-14 -3 -31 -10 -37 -15 -17 -13 -16 -58 1 -80 11 -16 65
-42 71 -36 2 2 6 33 10 71 8 72 9 70 -45 60z"/>
<path d="M5254 652 c-47 -35 -184 -178 -184 -193 0 -11 -28 -51 -97 -137 -24
-29 -43 -58 -43 -64 0 -7 -31 -64 -70 -128 -38 -64 -70 -120 -70 -124 0 -3 41
-5 92 -4 l91 3 14 40 c7 22 22 59 33 82 11 24 20 45 20 48 0 16 108 175 176
259 166 205 155 186 128 224 -20 29 -43 28 -90 -6z"/>
<path d="M8264 493 c-38 -52 -37 -72 15 -229 27 -82 54 -175 61 -206 l13 -58
89 0 c101 0 101 -1 63 84 -13 30 -36 92 -50 135 -62 190 -120 301 -158 301 -7
0 -22 -12 -33 -27z"/>
</g>
</svg>
